<?xml version="1.0" encoding="UTF-8" standalone="no"?>
<!-- Uploaded to: SVG Repo, www.svgrepo.com, Transformed by: SVG Repo Mixer Tools -->

<svg
   height="800px"
   width="800px"
   version="1.1"
   id="Capa_1"
   viewBox="0 0 58.00 58.00"
   xml:space="preserve"
   fill="#000000"
   sodipodi:docname="speech-bubble-1.svg"
   inkscape:version="1.4 (e7c3feb100, 2024-10-09)"
   xmlns:inkscape="http://www.inkscape.org/namespaces/inkscape"
   xmlns:sodipodi="http://sodipodi.sourceforge.net/DTD/sodipodi-0.dtd"
   xmlns="http://www.w3.org/2000/svg"
   xmlns:svg="http://www.w3.org/2000/svg"><defs
   id="defs4" /><sodipodi:namedview
   id="namedview4"
   pagecolor="#ffffff"
   bordercolor="#000000"
   borderopacity="0.25"
   inkscape:showpageshadow="2"
   inkscape:pageopacity="0.0"
   inkscape:pagecheckerboard="0"
   inkscape:deskcolor="#d1d1d1"
   inkscape:zoom="2.24375"
   inkscape:cx="400.44568"
   inkscape:cy="400"
   inkscape:window-width="3834"
   inkscape:window-height="2112"
   inkscape:window-x="0"
   inkscape:window-y="42"
   inkscape:window-maximized="1"
   inkscape:current-layer="g4" />

<g
   id="SVGRepo_bgCarrier"
   stroke-width="0" />

<g
   id="SVGRepo_tracerCarrier"
   stroke-linecap="round"
   stroke-linejoin="round" />

<g
   id="SVGRepo_iconCarrier"> <g
   id="g4"> <path
   style="fill:#447ebb"
   d="m 57.906407,9.6783092 c 0,-8.82200001 -2.428154,-9.58590185 -11.25014,-9.56991649 l -35.664623,0.064624 C 2.169658,0.18900205 0.07709512,0.43627579 0.09693593,9.2582535 L 0.16155989,37.992515 C 0.19069611,50.947585 14.655416,46.315634 16.741504,48.984159 L 16.870756,49.240983 17,56.793 18.391312,53.786089 c 3.238033,-6.855975 4.079813,-4.134105 11.36195,-5.932849 l 11.119161,-2.746519 c 9.099984,-2.247767 17.033984,0.835371 17.033984,-7.986629 z"
   id="path1"
   sodipodi:nodetypes="sssssccccssss" /> <g
   id="g3"
   transform="matrix(1,0,0,0.8,0,9.5142312)"> <path
   style="fill:#ffffff;stroke-width:0.961981"
   d="m 56.805,46.961693 -0.107,0.150841 c -7.121,10.064729 -18.773,10.064729 -25.893,0 v 0 l 0.01006,-0.225596 C 40.521022,40.335663 49.685,36.896963 56.805,46.961693 Z"
   id="path2"
   sodipodi:nodetypes="ccsccc" /> <ellipse
   style="fill:#556080;stroke-width:0.894427"
   cx="43.601311"
   cy="46.361309"
   id="circle2"
   rx="4.7272"
   ry="5.9089999" /> <path
   style="fill:#b1d3ef;stroke-width:0.894427"
   d="m 43.752,54.948631 c -5.254,0 -10.148,-2.4464 -13.783,-6.8872 l -0.358,-0.4376 0.465,-0.5688 c 3.635,-4.4416 8.562312,-6.86135 13.816312,-6.86135 5.253,0 10.115688,2.41975 13.750688,6.86135 l 0.357,0.4368 -0.465,0.5688 c -3.635,4.4416 -8.53,6.888 -13.783,6.888 z m -11.744,-7.3288 c 3.206,3.6992 7.356,5.7288 11.744,5.7288 4.436,0 8.63,-2.0752 11.85,-5.8536 -3.206,-3.6992 -7.356,-5.7288 -11.743,-5.7288 -4.437,0 -8.63,2.0752 -11.851,5.8536 z"
   id="path3"
   sodipodi:nodetypes="scccscccscscsc" /> </g> </g> </g>

</svg>
